<svg xmlns="http://www.w3.org/2000/svg" viewBox="0 0 96 96" role="img" aria-label="Blomma">
  <g fill="none" stroke-linecap="round" stroke-linejoin="round">
    <path d="M49 77c0-15 0-27 3-40M50 65c-10-9-18-14-29-16M51 59c10-9 18-15 29-18" stroke="#6f9f80" stroke-width="3.5"/>
    <path d="M30 51c-8-1-14 2-18 9 9 1 15-2 18-9Z" fill="#bad7be" stroke="#6f9f80" stroke-width="2"/>
    <path d="M68 48c8-3 15-1 21 5-8 3-15 1-21-5Z" fill="#c9dfcc" stroke="#6f9f80" stroke-width="2"/>
  </g>
  <g transform="translate(51 31)">
    <g fill="#f6d1da" stroke="#c98d9d" stroke-width="2">
      <ellipse rx="12" ry="20" transform="rotate(0) translate(0 -9)"/><ellipse rx="12" ry="20" transform="rotate(72) translate(0 -9)"/><ellipse rx="12" ry="20" transform="rotate(144) translate(0 -9)"/><ellipse rx="12" ry="20" transform="rotate(216) translate(0 -9)"/><ellipse rx="12" ry="20" transform="rotate(288) translate(0 -9)"/>
    </g>
    <circle r="8" fill="#efbd63" stroke="#c58e3f" stroke-width="1.8"/>
  </g>
</svg>
